<svg width="43" height="56" viewBox="0 0 43 56" fill="none" xmlns="http://www.w3.org/2000/svg">
<path d="M35.0692 15.0273C35.0692 11.5722 33.6175 8.25869 31.0335 5.8156C28.4494 3.37251 24.9447 2 21.2904 2C17.636 2 14.1313 3.37251 11.5473 5.8156C8.96322 8.25869 7.51153 11.5722 7.51153 15.0273" fill="#EF476F"/>
<path d="M35.0692 15.0273C36.5309 15.0273 37.9328 15.5763 38.9664 16.5535C40 17.5308 40.5807 18.8562 40.5807 20.2382C40.5807 21.6202 40 22.9456 38.9664 23.9229C37.9328 24.9001 36.5309 25.4491 35.0692 25.4491H7.51153C6.04978 25.4491 4.6479 24.9001 3.61429 23.9229C2.58068 22.9456 2 21.6202 2 20.2382C2 18.8562 2.58068 17.5308 3.61429 16.5535C4.6479 15.5763 6.04978 15.0273 7.51153 15.0273" fill="#EF476F"/>
<path d="M7.51153 25.4491H35.0692C36.5309 25.4491 37.9328 24.9001 38.9664 23.9229C40 22.9456 40.5807 21.6202 40.5807 20.2382C40.5807 18.8562 40 17.5308 38.9664 16.5535C37.9328 15.5763 36.5309 15.0273 35.0692 15.0273C35.0692 11.5722 33.6175 8.25869 31.0335 5.8156C28.4494 3.37251 24.9447 2 21.2904 2C17.636 2 14.1313 3.37251 11.5473 5.8156C8.96322 8.25869 7.51153 11.5722 7.51153 15.0273C6.04978 15.0273 4.6479 15.5763 3.61429 16.5535C2.58068 17.5308 2 18.8562 2 20.2382C2 21.6202 2.58068 22.9456 3.61429 23.9229C4.6479 24.9001 6.04978 25.4491 7.51153 25.4491Z" stroke="#09090B" stroke-width="3" stroke-linecap="round" stroke-linejoin="round"/>
<path d="M7.51154 25.4492L18.7551 52.4157C18.9668 52.8857 19.3201 53.2864 19.7708 53.5681C20.2216 53.8498 20.75 54 21.2904 54C21.8307 54 22.3591 53.8498 22.8099 53.5681C23.2607 53.2864 23.6139 52.8857 23.8257 52.4157L35.0692 25.4492" fill="white"/>
<path d="M7.51154 25.4492L18.7551 52.4157C18.9668 52.8857 19.3201 53.2864 19.7708 53.5681C20.2216 53.8498 20.75 54 21.2904 54C21.8307 54 22.3591 53.8498 22.8099 53.5681C23.2607 53.2864 23.6139 52.8857 23.8257 52.4157L35.0692 25.4492H7.51154Z" stroke="#09090B" stroke-width="3" stroke-linecap="round" stroke-linejoin="round"/>
</svg>
