 <svg width="32" height="32" viewBox="0 0 42 55" fill="none" xmlns="http://www.w3.org/2000/svg">
        <!-- Top scoop - primary color -->
        <path d="M34.5692 14.5273C34.5692 11.0722 33.1175 7.75869 30.5335 5.3156C27.9494 2.87251 24.4447 1.5 20.7904 1.5C17.136 1.5 13.6313 2.87251 11.0473 5.3156C8.46322 7.75869 7.01153 11.0722 7.01153 14.5273" fill="#9400D3"/>
        <!-- Middle scoop - primary color -->
        <path d="M34.5692 14.5273C36.0309 14.5273 37.4328 15.0763 38.4664 16.0535C39.5 17.0308 40.0807 18.3562 40.0807 19.7382C40.0807 21.1202 39.5 22.4456 38.4664 23.4229C37.4328 24.4001 36.0309 24.9491 34.5692 24.9491H7.01153C5.54978 24.9491 4.1479 24.4001 3.11429 23.4229C2.08068 22.4456 1.5 21.1202 1.5 19.7382C1.5 18.3562 2.08068 17.0308 3.11429 16.0535C4.1479 15.0763 5.54978 14.5273 7.01153 14.5273" fill="#9400D3"/>
        <!-- Cone outline - textDark color -->
        <path d="M7.01153 24.9491H34.5692C36.0309 24.9491 37.4328 24.4001 38.4664 23.4229C39.5 22.4456 40.0807 21.1202 40.0807 19.7382C40.0807 18.3562 39.5 17.0308 38.4664 16.0535C37.4328 15.0763 36.0309 14.5273 34.5692 14.5273C34.5692 11.0722 33.1175 7.75869 30.5335 5.3156C27.9494 2.87251 24.4447 1.5 20.7904 1.5C17.136 1.5 13.6313 2.87251 11.0473 5.3156C8.46322 7.75869 7.01153 11.0722 7.01153 14.5273C5.54978 14.5273 4.1479 15.0763 3.11429 16.0535C2.08068 17.0308 1.5 18.3562 1.5 19.7382C1.5 21.1202 2.08068 22.4456 3.11429 23.4229C4.1479 24.4001 5.54978 24.9491 7.01153 24.9491Z" stroke="#2E0040" stroke-width="3" stroke-linecap="round" stroke-linejoin="round"/>
        <!-- Cone - textLight color (white) -->
        <path d="M7.01154 24.9492L18.2551 51.9157C18.4668 52.3857 18.8201 52.7864 19.2708 53.0681C19.7216 53.3498 20.25 53.5 20.7904 53.5C21.3307 53.5 21.8591 53.3498 22.3099 53.0681C22.7607 52.7864 23.1139 52.3857 23.3257 51.9157L34.5692 24.9492" fill="#FFFFFF"/>
        <!-- Cone outline - textDark color -->
        <path d="M7.01154 24.9492L18.2551 51.9157C18.4668 52.3857 18.8201 52.7864 19.2708 53.0681C19.7216 53.3498 20.25 53.5 20.7904 53.5C21.3307 53.5 21.8591 53.3498 22.3099 53.0681C22.7607 52.7864 23.1139 52.3857 23.3257 51.9157L34.5692 24.9492H7.01154Z" stroke="#2E0040" stroke-width="3" stroke-linecap="round" stroke-linejoin="round"/>
      </svg>
    
